<mxfile host="app.diagrams.net" modified="2024-01-03T19:54:57.914Z" agent="Mozilla/5.0 (X11; Linux x86_64) AppleWebKit/537.36 (KHTML, like Gecko) Chrome/120.0.0.0 Safari/537.36" etag="KDDoeG-TD01aga20OAQV" version="22.1.16" type="github">
  <diagram name="Page-1" id="wjtIyyDq64W1t-eU5dSL">
    <mxGraphModel dx="1434" dy="907" grid="0" gridSize="10" guides="1" tooltips="1" connect="1" arrows="1" fold="1" page="0" pageScale="1" pageWidth="850" pageHeight="1100" math="0" shadow="0">
      <root>
        <mxCell id="0" />
        <mxCell id="1" parent="0" />
      </root>
    </mxGraphModel>
  </diagram>
</mxfile>
